# xmcd
#
# Track frame offsets:
# 150
# 16902
# 31381
# 47331
# 63262
# 83452
# 96819
# 114029
# 137066
# 150722
# 163613
# 180014
# 199125
# 213009
# 226417
# 246178
# 265734
# 283412
# 297751
# 311962
#
# Disc length: 4342 seconds
#
#
# Revision: 0
# Processed by: cddbd v1.5.1PL2 Copyright (c) Steve Scherf et al.
# Submitted via: FreeRIP 2.944 
#
DISCID=0310f414
DTITLE=Pigs in The Parlour - Lazy Pigs
DYEAR=2004
DGENRE=Country
TTITLE0=$100,000 (Bill Hangley Jr.)
TTITLE1=On Top of The World (Traditional)
TTITLE2=Old Man Song (Tony Rose)
TTITLE3=Saturday Night (Mark Mulholland)
TTITLE4=Wildwood Flower (Jimmy Bozerman)
TTITLE5=Water Tank (Jimmy Rogers)
TTITLE6=Screen Door Jesus (Jimmy Bozerman)
TTITLE7=Poncho and Lefty (Townes van Zandt)
TTITLE8=Cherokee Shuffle (Traditional)
TTITLE9=Movin' On (Jimmy Bozerman)
TTITLE10=Lover's Do (Tony Rose)
TTITLE11=Hard Headed Woman (Jimmy Bozerman)
TTITLE12=I Ain't The One (Bill Hangley Jr.)
TTITLE13=Chicken (Miss John Hurt)
TTITLE14=Love Flowed Like Wine (Jimmy Bozerman)
TTITLE15=Don't Want To See Your Smile (Mark Mulholland)
TTITLE16=Ghost Town (Jimmy Bozerman)
TTITLE17=The Old Man's Sleeping (Traditional)
TTITLE18=Good Old Days (Jimmy Bozerman)
TTITLE19=Nashville Blues (Traditional)
EXTD=
EXTT0=
EXTT1=
EXTT2=
EXTT3=
EXTT4=
EXTT5=
EXTT6=
EXTT7=
EXTT8=
EXTT9=
EXTT10=
EXTT11=
EXTT12=
EXTT13=
EXTT14=
EXTT15=
EXTT16=
EXTT17=
EXTT18=
EXTT19=
PLAYORDER=
